<?xml version="1.0" encoding="utf-8"?>
<!-- Generator: Adobe Illustrator 25.0.0, SVG Export Plug-In . SVG Version: 6.00 Build 0)  -->
<svg version="1.1" id="Layer_1" xmlns="http://www.w3.org/2000/svg" xmlns:xlink="http://www.w3.org/1999/xlink" x="0px" y="0px"
	 viewBox="0 0 405.6 64" style="enable-background:new 0 0 405.6 64;" xml:space="preserve">
<style type="text/css">
	.st0{fill:#88C1E3;}
	.st1{fill:#609949;}
	.st2{fill:#A4BF5A;}
	.st3{fill:#EFA929;}
	.st4{fill:#1C75BC;}
	.st5{fill:#3EAED0;}
	.st6{stroke:#000000;stroke-width:0.8408;stroke-miterlimit:10;}
	.st7{fill:#5698C6;}
</style>
<rect x="151.2" y="14.6" class="st0" width="5.4" height="37.3"/>
<polygon class="st1" points="35.9,25.3 39.1,30.5 53.3,7.5 53.3,16.9 62.9,1.9 50.4,1.8 "/>
<polygon class="st2" points="6.9,15.3 15,26.8 14,56.9 6.9,56.9 "/>
<polygon class="st3" points="1.8,6.9 5.9,13.6 5.9,57.8 15,57.8 15,60.7 1.6,60.7 "/>
<polygon class="st4" points="53.3,31.9 53.3,61.8 64.7,61.8 64.1,13.9 "/>
<polygon class="st5" points="81.8,31.4 86.9,31.4 86.9,14.7 76.8,14.7 76.8,61.9 86.9,61.9 86.9,48.8 81.8,48.8 "/>
<polygon class="st1" points="152.2,1.5 152.2,13.5 146.5,13.5 146.5,56.7 143.5,56.7 143.5,2.4 "/>
<path class="st2" d="M87.6,2.2c0,0,23.9-2.8,35.4,8.1c9.6,9.1,11.6,24.2,3.4,38.3c-9,15.4-33.9,12.8-33.9,12.8l0.1-6
	c0,0,11-0.2,12.4-0.4c1.4-0.3,12.5-3.2,16.4-10.3c3.9-7.1,3.5-12.7,3.5-12.7l-6.6-0.1c0,0,1.9-10.7-8.7-15.4
	c-7.7-3.4-22.3-2.1-22.3-2.1L87.6,2.2z"/>
<g>
	<g>
		<polygon id="SVGID_1_" class="st3" points="146.8,61.2 146.8,57.2 156,57.2 156,51.2 185.1,51.2 185.1,61.2 		"/>
	</g>
</g>
<g>
	<g>
		<polygon id="SVGID_3_" class="st0" points="10.8,1.9 30.7,34 35.6,25.5 20.6,1.9 		"/>
	</g>
</g>
<path class="st6" d="M14,60.7v-2.9H5.9V13.6L2.6,8.2v52.5C2.6,60.7,14,60.7,14,60.7z M15,57.8v3.9H1.6V4.5l4.3,7.1V3l28,46.2
	l19.5-31.9V9.1L39.1,32.4l-3.2-5.3l-5,8.2L10.1,1.6h11.1l14.6,23.7L50.4,1.8h13.7l-9.7,15.9v10.7l10.3-16.9v50.3H53.3V31.9V30V19.3
	l-19.4,32L6.9,6.7v6.6L15,26.8v30.1V57.8z M14,56.9V27.1L6.9,15.3v41.6H14z M30.9,33.4l4.4-7.1L20.6,2.6h-8.7L30.9,33.4z M39.1,30.5
	L54.4,5.7v10l7.9-13H50.9L36.5,26.2L39.1,30.5z M63.7,60.7V15.1l-9.3,15.2v30.5L63.7,60.7L63.7,60.7z"/>
<path class="st6" d="M99.4,61.9H92v-7.1h7.4c3.7,0,7-0.5,10-1.6s5.6-2.6,7.8-4.5s3.9-4.3,5.1-7.1c1.2-2.8,1.9-5.8,2.1-9.2h-5.5
	c-0.2,2.6-0.7,5-1.7,7.1s-2.3,3.9-4,5.5c-1.7,1.5-3.7,2.7-6.1,3.5c-2.3,0.8-4.9,1.2-7.7,1.2H87.8v12.1H75.7V13.6h11.1v-12h12.5
	c6,0,11.1,0.9,15.2,2.7s7.5,4.1,10.1,6.9c2.6,2.8,4.4,6,5.6,9.4c1.1,3.5,1.7,6.9,1.7,10.2c0,4.7-0.8,8.9-2.4,12.7
	c-1.6,3.8-3.8,7.1-6.6,9.8c-2.8,2.7-6.3,4.8-10.2,6.3C108.7,61.1,104.2,61.9,99.4,61.9z M76.8,60.8h10.1v-11h-5.1V31.4h5.1V14.7
	H76.8V60.8z M82.7,48.8h4.1V32.4h-4.1V48.8z M93.1,60.8h6.3c4.6,0,8.9-0.7,12.8-2.1s7.2-3.4,10.1-6.2c2.8-2.8,4.9-6,6.4-9.6
	s2.2-7.7,2.2-12.2c0-3.3-0.5-6.6-1.6-9.9c-1.1-3.3-2.9-6.3-5.4-9s-5.7-4.9-9.8-6.6c-4-1.7-8.9-2.6-14.8-2.6H87.8v11h11.6
	c3.6,0,6.6,0.5,9.1,1.6s4.5,2.4,6,4.1c1.5,1.7,2.7,3.6,3.4,5.6c0.7,2.1,1,4.1,1,6.1v0.3h6.5v0.5c-0.1,3.6-0.8,6.8-2,9.7
	c-1.2,2.9-3,5.5-5.4,7.6c-2.4,2.2-5.2,3.8-8.3,4.9s-6.6,1.7-10.4,1.7H93v5.1H93.1z M118,31.4v-0.3c0-1.9-0.3-3.8-0.9-5.8
	c-0.6-1.9-1.7-3.7-3.1-5.3c-1.5-1.6-3.4-2.9-5.7-3.9c-2.4-1-5.3-1.5-8.7-1.5H88v16.7v1v16.4h11.6c2.7,0,5.2-0.4,7.4-1.2
	c2.2-0.8,4.1-1.9,5.7-3.3c1.6-1.4,2.9-3.2,3.8-5.2c0.9-2,1.5-4.2,1.6-6.7v-0.9H118z"/>
<path class="st6" d="M146.5,61.8v-4h-4V1.5h9.7v12h4.4v37.3h29v10.9L146.5,61.8L146.5,61.8z M146.5,56.7V13.5h4.7V2.4h-7.7v54.2
	L146.5,56.7L146.5,56.7z M155.6,56.7v-4.9h-4.4V14.6h-3.7v42.1H155.6z M184.7,60.7v-8.9h-28.1v5.9h-9.1v2.9L184.7,60.7L184.7,60.7z
	 M155.6,50.8V14.6h-3.4v36.3h3.4V50.8z"/>
<path class="st7" d="M-59.4,49.3"/>
<path d="M202.7,23.1h2.1l4.2,10.2l4.4-10.2h2.1l2.6,15.9H215l-1.4-9.6l-4.3,9.8h-0.8l-4.1-9.8l-1.6,9.6h-3.1L202.7,23.1z"/>
<path d="M223.3,23.4h3V39h-3V23.4z"/>
<path d="M232.4,23h2.1l9.5,10.8V23.4h3v15.9h-2.1l-9.5-10.8V39h-3V23z"/>
<path d="M252.9,23h2.1l9.5,10.8V23.4h3v15.9h-2.1l-9.5-10.8V39h-3V23z"/>
<path d="M273.4,23.4h8.6V26h-5.6v3.5h5.4v2.6h-5.4v4.2h5.6v2.6h-8.6V23.4z"/>
<path d="M288.3,34.5c0.7,1.3,1.9,2.1,3.3,2.1s2.4-0.9,2.4-2.2c0-0.6-0.3-1.2-0.8-1.6c-0.3-0.2-0.9-0.5-2.2-0.9
	c-2.8-1-3.8-2.1-3.8-4.2c0-2.6,2.1-4.5,4.9-4.5c1.7,0,3.3,0.6,4.6,1.7l-1.6,2.1c-0.8-0.9-1.5-1.3-2.5-1.3c-1.2,0-2.2,0.8-2.2,1.7
	c0,0.8,0.5,1.3,2.4,2c1.7,0.6,2.4,1,3.1,1.6c0.9,0.8,1.4,1.9,1.4,3.3c0,3.1-2.2,5.1-5.4,5.1c-2.2,0-3.9-0.9-5.3-3L288.3,34.5z"/>
<path d="M309.6,23c4.6,0,8.3,3.6,8.3,8.1c0,4.6-3.7,8.1-8.4,8.1c-4.7,0-8.2-3.6-8.2-8.2C301.2,26.6,304.9,23,309.6,23z M309.5,36.5
	c2.8,0,5.2-2.4,5.2-5.4s-2.3-5.3-5.2-5.3c-2.8,0-5.2,2.4-5.2,5.3C304.3,34.1,306.6,36.5,309.5,36.5z"/>
<path d="M324.5,26H321v-2.6h10V26h-3.5v12.9h-3V26z"/>
<path d="M339.4,23h2.3l6.5,15.9H345l-1.3-3.3h-6.4l-1.4,3.3h-3.2L339.4,23z M342.7,33.2l-2.2-5.6l-2.3,5.6H342.7z"/>
<path d="M200.7,46.6h4.5c2.3,0,4.1,0.6,5.6,1.8c1.8,1.4,2.8,3.6,2.8,6c0,2.3-1.1,4.5-2.8,6c-1.5,1.3-3.2,1.8-5.6,1.8h-4.4V46.6
	H200.7z M204.5,59.5c2,0,3.2-0.4,4.2-1.2c1-0.9,1.7-2.4,1.7-3.9s-0.6-2.9-1.7-3.9c-1-0.9-2.2-1.3-4.2-1.3h-0.8v10.3H204.5z"/>
<path d="M218.2,46.6h3v15.6h-3V46.6z"/>
<path d="M234.2,46.2c2.9,0,5.2,1.3,6.7,3.7l-2.7,1.4c-0.9-1.5-2.3-2.3-4-2.3c-2.9,0-5.1,2.3-5.1,5.4c0,3,2.2,5.3,5.1,5.3
	c2.2,0,3.9-1.3,4.1-3.3h-3.7v-2.6h7.1c0,2.3-0.2,3.4-0.8,4.6c-1.3,2.6-3.7,4.1-6.8,4.1c-4.7,0-8.2-3.4-8.2-8.1
	C225.9,49.7,229.4,46.2,234.2,46.2z"/>
<path d="M246.7,46.6h3v15.6h-3V46.6z"/>
<path d="M257.8,49.2h-3.5v-2.6h10v2.6h-3.5v12.9h-3V49.2z"/>
<path d="M272.7,46.3h2.3l6.5,15.9h-3.2l-1.3-3.3h-6.4l-1.4,3.3H266L272.7,46.3z M276,56.4l-2.2-5.6l-2.3,5.6H276z"/>
<path d="M285.7,46.6h3v12.9h4.8v2.6h-7.8V46.6z"/>
<path d="M306.1,46.6h3v12.9h4.8v2.6h-7.8V46.6z"/>
<path d="M318.8,46.6h3v15.6h-3V46.6z"/>
<path d="M327.9,46.6h3.9c1.8,0,3,0.3,3.8,0.9c0.9,0.7,1.4,1.9,1.4,3.2c0,0.8-0.2,1.7-0.6,2.2c-0.2,0.4-0.5,0.6-1.1,0.9
	c1.1,0.2,1.5,0.5,2,1c0.7,0.7,1.1,1.8,1.1,2.9c0,1.2-0.5,2.4-1.4,3.2c-0.9,0.8-2.1,1.2-3.9,1.2h-5.3V46.6H327.9z M331.8,53.1
	c1.6,0,2.4-0.7,2.4-2s-0.8-2-2.3-2H331v4H331.8z M332.3,59.7c1,0,1.6-0.1,2.1-0.4c0.6-0.3,0.9-1,0.9-1.7s-0.3-1.4-0.9-1.7
	c-0.5-0.3-1-0.4-2.3-0.4H331v4.3h1.3V59.7z"/>
<path d="M343.3,46.6h4.5c1.7,0,3.1,0.4,4,1.1c1,0.8,1.5,2.1,1.5,3.5s-0.5,2.7-1.4,3.4c-0.6,0.5-1.2,0.8-2.1,1l4.9,6.6H351l-4.2-6.3
	h-0.4v6.3h-3L343.3,46.6L343.3,46.6z M347.2,53.8c1.9,0,3-0.8,3-2.4c0-1.5-1-2.3-2.9-2.3h-0.9v4.7C346.4,53.8,347.2,53.8,347.2,53.8
	z"/>
<path d="M364,46.3h2.3l6.5,15.9h-3.2l-1.3-3.3h-6.4l-1.4,3.3h-3.2L364,46.3z M367.3,56.4l-2.2-5.6l-2.3,5.6H367.3z"/>
<path d="M377,46.6h4.5c1.7,0,3.1,0.4,4,1.1c1,0.8,1.5,2.1,1.5,3.5s-0.5,2.7-1.4,3.4c-0.6,0.5-1.2,0.8-2.1,1l4.9,6.6h-3.7l-4.2-6.3
	h-0.4v6.3h-3L377,46.6L377,46.6z M381,53.8c1.9,0,3-0.8,3-2.4c0-1.5-1-2.3-2.9-2.3h-0.9v4.7C380.2,53.8,381,53.8,381,53.8z"/>
<path d="M395.6,55l-5.4-8.4h3.6l3.4,5.4l3.3-5.4h3.6l-5.5,8.4v7.1h-3V55z"/>
</svg>
