<?xml version="1.0" encoding="utf-8"?>
<!-- Generator: Adobe Illustrator 25.0.0, SVG Export Plug-In . SVG Version: 6.00 Build 0)  -->
<svg version="1.1" id="Layer_1" xmlns="http://www.w3.org/2000/svg" xmlns:xlink="http://www.w3.org/1999/xlink" x="0px" y="0px"
	 viewBox="0 0 547.5 219" style="enable-background:new 0 0 547.5 219;" xml:space="preserve">
<style type="text/css">
	.st0{fill:none;}
	.st1{fill:#FFFFFF;}
	.st2{fill:#8AC2E4;}
	.st3{fill:#2DAED0;}
	.st4{fill:#F1AB28;}
	.st5{fill:#5F9948;}
	.st6{fill:#A3C05B;}
	.st7{fill:#191314;}
</style>
<rect x="-26.1" y="-26.4" class="st0" width="600" height="280"/>
<g>
	<g>
		<path d="M202.6,51.5h4.9l10.1,24.1L228,51.5h5l6.1,37.6h-7.2l-3.3-22.7l-10.1,23.2h-2l-9.8-23.2L203,89h-7.2L202.6,51.5z"/>
		<path d="M251.2,52.1h7.2V89h-7.2V52.1z"/>
		<path d="M272.4,51.3h5L299.8,77V52.1h7.2v37.6h-5l-22.5-25.7V89h-7.2V51.3z"/>
		<path d="M321,51.3h5L348.4,77V52.1h7.2v37.6h-5l-22.5-25.7V89H321V51.3z"/>
		<path d="M369.6,52.1H390v6.3h-13.2v8.2h12.7v6.3h-12.7v10H390V89h-20.4V52.1z"/>
		<path d="M404.8,78.4c1.7,3.2,4.4,4.9,7.7,4.9c3.3,0,5.7-2.2,5.7-5.2c0-1.5-0.7-2.8-2-3.7c-0.7-0.6-2.1-1.1-5.1-2.2
			c-6.6-2.4-9.1-5.1-9.1-10c0-6.2,4.9-10.7,11.5-10.7c4,0,7.7,1.4,10.8,4.1l-3.8,4.9c-1.9-2.1-3.7-3-6-3c-2.9,0-5.2,1.8-5.2,4.1
			c0,2,1.3,3,5.6,4.6c4.1,1.5,5.7,2.3,7.4,3.7c2.2,1.8,3.3,4.5,3.3,7.7c0,7.2-5.2,12.2-12.8,12.2c-5.3,0-9.3-2.2-12.7-7L404.8,78.4z
			"/>
		<path d="M454.5,51.3c11,0,19.6,8.5,19.6,19.3c0,10.8-8.7,19.3-19.9,19.3c-11.1,0-19.5-8.5-19.5-19.5
			C434.7,59.8,443.5,51.3,454.5,51.3z M454.4,83.3c6.8,0,12.3-5.7,12.3-12.7c0-7-5.5-12.7-12.3-12.7c-6.7,0-12.3,5.7-12.3,12.6
			C442.1,77.6,447.6,83.3,454.4,83.3z"/>
		<path d="M489,58.4h-8.2v-6.3h23.7v6.3h-8.3V89H489V58.4z"/>
		<path d="M523.7,51.4h5.4L544.6,89h-7.7l-3.1-7.8h-15.1l-3.3,7.8h-7.6L523.7,51.4z M531.5,75.4l-5.1-13.3L521,75.4H531.5z"/>
	</g>
	<g>
		<path d="M197.7,106.8h10.6c5.4,0,9.7,1.4,13.2,4.3c4.1,3.4,6.6,8.6,6.6,14.2c0,5.5-2.5,10.7-6.7,14.2c-3.6,3-7.6,4.3-13.2,4.3
			h-10.5V106.8z M206.8,137.5c4.7,0,7.6-0.9,9.8-2.9c2.5-2.2,4-5.8,4-9.3c0-3.5-1.5-7-4-9.2c-2.4-2.2-5.2-3-9.8-3h-1.9v24.4H206.8z"
			/>
		<path d="M239.3,106.8h7.2v36.9h-7.2V106.8z"/>
		<path d="M277.2,106c6.9,0,12.3,3,15.8,8.7l-6.3,3.4c-2.2-3.6-5.5-5.5-9.6-5.5c-6.9,0-12.1,5.5-12.1,12.9c0,7.2,5.1,12.6,12.1,12.6
			c5.3,0,9.1-3.1,9.7-7.8H278V124h16.9c-0.1,5.4-0.6,8.1-1.9,10.9c-3.1,6.2-8.7,9.6-16,9.6c-11.2,0-19.4-8.1-19.4-19.1
			C257.6,114.3,265.8,106,277.2,106z"/>
		<path d="M306.7,106.8h7.2v36.9h-7.2V106.8z"/>
		<path d="M333.5,113.1h-8.2v-6.3H349v6.3h-8.3v30.6h-7.2V113.1z"/>
		<path d="M369.5,106.1h5.4l15.5,37.7h-7.7l-3.1-7.8h-15.1l-3.3,7.8h-7.6L369.5,106.1z M377.3,130.1l-5.1-13.3l-5.4,13.3H377.3z"/>
		<path d="M400.3,106.8h7.2v30.6h11.3v6.2h-18.5V106.8z"/>
	</g>
	<g>
		<path d="M199.6,162.3h7.2V193h11.3v6.2h-18.5V162.3z"/>
		<path d="M230.1,162.3h7.2v36.9h-7.2V162.3z"/>
		<path d="M251.3,162.3h9.1c4.3,0,7.1,0.7,9,2.2c2,1.6,3.3,4.5,3.3,7.5c0,2-0.5,3.9-1.4,5.3c-0.6,0.8-1.2,1.3-2.7,2.2
			c2.5,0.6,3.6,1.1,4.8,2.3c1.7,1.7,2.7,4.3,2.7,7c0,2.9-1.2,5.7-3.3,7.6c-2.2,1.9-5.1,2.8-9.2,2.8h-12.4V162.3z M260.5,177.7
			c3.7,0,5.6-1.7,5.6-4.8c0-3.1-1.9-4.8-5.5-4.8h-2.2v9.6H260.5z M261.5,193.4c2.3,0,3.9-0.3,5-1c1.3-0.8,2.2-2.4,2.2-4.1
			c0-1.7-0.8-3.3-2.2-4.1c-1.3-0.8-2.4-1.1-5.4-1.1h-2.7v10.2H261.5z"/>
		<path d="M288.2,162.3h10.2c4.1,0,7.4,0.9,9.4,2.6c2.3,1.9,3.7,5,3.7,8.3c0,3.3-1.3,6.4-3.3,8.1c-1.4,1.2-2.8,1.9-5.1,2.3
			l11.6,15.5h-8.9l-10-14.8h-0.9v14.8h-6.7V162.3z M297,179.3c4.5,0,7-2,7-5.6c0-3.7-2.4-5.5-6.9-5.5h-2.2v11.2H297z"/>
		<path d="M337.4,161.5h5.4l15.5,37.7h-7.7l-3.2-7.8h-15.1l-3.3,7.8h-7.6L337.4,161.5z M345.3,185.6l-5.1-13.3l-5.4,13.3H345.3z"/>
		<path d="M368.2,162.3h10.7c4.1,0,7.4,0.9,9.4,2.6c2.3,1.9,3.7,5,3.7,8.3c0,3.3-1.3,6.4-3.3,8.1c-1.4,1.2-2.8,1.9-5.1,2.3
			l11.6,15.5h-8.9l-10-14.8h-0.9v14.8h-7.2V162.3z M377.5,179.3c4.5,0,7-2,7-5.6c0-3.7-2.4-5.5-6.9-5.5h-2.2v11.2H377.5z"/>
		<path d="M412.6,182.3l-12.7-20h8.5l8,12.8l7.8-12.8h8.6l-12.9,20v16.9h-7.2V182.3z"/>
	</g>
</g>
<polygon class="st1" points="55.4,14.3 5.3,14.3 17.3,138.8 31.3,138.8 28.1,95.5 55.4,95.5 "/>
<rect x="55.4" y="4.9" class="st2" width="15.1" height="133.9"/>
<polygon class="st3" points="54.5,214.1 54.5,164.3 107.8,164.3 109.9,138.8 153.7,214.1 "/>
<polygon class="st4" points="6.6,138.8 6.6,151.7 17.6,151.7 21.4,214.1 54.5,214.1 54.5,164.3 33.2,164.3 31.3,138.8 "/>
<polygon class="st5" points="31.3,138.8 55.4,138.8 55.4,95.5 28.1,95.5 "/>
<polygon class="st6" points="70.5,20.4 70.5,138.8 109.9,138.8 113.3,96 175.2,34.3 "/>
<polygon class="st1" points="107.8,164.3 33.2,164.3 31.3,138.8 109.9,138.8 "/>
<g>
	<g>
		<path class="st7" d="M115.2,96.9l64.2-64l-107-14.3V2.9H53.4v9.4l-50.3,0l12,124.5l-10.5,0v16.9h11.1l3.8,62.4h33h4h100.7
			l-45.2-77.8L115.2,96.9z M53.4,136.8H33.1l-2.9-39.3h23.2V136.8z M33.4,140.8h20h4h11.2h4h35.2l-1.7,21.6H56.5h-4H35L33.4,140.8z
			 M171,35.7l-59.6,59.3l-3.4,41.7H72.5V22.6L171,35.7z M57.4,6.8h11.2v11.3v118.7H57.4V97.5v-4V12.3V6.8z M53.4,16.3v77.2H26
			l3.2,43.2H19.1L7.5,16.3L53.4,16.3z M52.5,212.1H23.2l-3.8-62.4H8.6v-9l20.9,0l1.7,22.6l0.2,3h0h21.2V212.1z M56.5,212.1v-45.8
			h53.2h0l0.2-2.6l1.5-18.4l38.9,66.9H56.5z"/>
	</g>
</g>
</svg>
